<?xml version="1.0" encoding="utf-8"?>
<!-- Generator: Adobe Illustrator 16.0.3, SVG Export Plug-In . SVG Version: 6.00 Build 0)  -->
<!DOCTYPE svg PUBLIC "-//W3C//DTD SVG 1.1//EN" "http://www.w3.org/Graphics/SVG/1.1/DTD/svg11.dtd">
<svg version="1.1" id="Ebene_1" xmlns="http://www.w3.org/2000/svg" xmlns:xlink="http://www.w3.org/1999/xlink" x="0px" y="0px"
	 width="388.344px" height="446.034px" viewBox="116 162.5 388.344 446.034" enable-background="new 116 162.5 388.344 446.034"
	 xml:space="preserve">
<polygon fill="#FFFFFF" points="504.344,497.486 311.552,608.534 118.76,497.486 118.76,275.389 311.552,164.341 504.344,275.389 
	"/>
<polygon fill="none" stroke="#3DA0DA" stroke-width="5" stroke-miterlimit="10" points="496.633,494.401 310.01,602.365 
	123.387,494.401 123.387,278.166 310.01,170.202 496.633,278.166 "/>
<g>
	<g>
		<path fill="#3DA0DA" d="M304.457,261.508c-0.617-0.308-0.925-0.617-1.542-0.617c-0.926,0-1.234,0.617-1.234,1.851v0.617h3.702
			v1.542h-3.702v8.02h-1.542v-8.02h-2.776v-1.542h2.776v-0.617c0-2.16,1.233-3.085,2.776-3.085c0.925,0,1.542,0.309,1.851,0.617
			L304.457,261.508z"/>
		<path fill="#3DA0DA" d="M311.861,263.359c2.776,0,4.627,2.159,4.627,4.936c0,2.776-1.851,4.936-4.627,4.936
			s-4.627-2.16-4.627-4.936C307.234,265.518,309.084,263.359,311.861,263.359z M311.861,271.379c1.851,0,3.085-1.542,3.085-3.393
			c0-1.851-1.234-3.393-3.085-3.393s-3.085,1.542-3.085,3.393C308.776,269.837,310.01,271.379,311.861,271.379z"/>
		<path fill="#3DA0DA" d="M325.433,266.443c0-0.925-0.616-1.851-1.851-1.851c-1.542,0-3.085,1.542-3.085,4.627v3.393h-1.542v-9.254
			h1.542v1.851c0.617-1.234,1.852-1.851,3.394-1.851c1.851,0,3.085,1.234,3.085,3.084H325.433z"/>
	</g>
	<g>
		<polygon fill="#3DA0DA" points="299.83,231.895 299.83,232.204 299.83,251.945 301.372,251.945 301.681,251.945 302.298,251.945 
			302.298,231.895 		"/>
		<g>
			<path fill="#3DA0DA" d="M309.701,253.796c0.309,0,0.309-0.309,0.309-0.309v-23.443c0-0.309-0.309-0.309-0.309-0.309h-7.712
				c-0.309,0-0.309,0-0.309,0.309v0.617v1.234c0,0.309,0,0.309,0.309,0.309h5.244c0.309,0,0.309,0,0.309,0.309v18.508
				c0,0.309-0.309,0.309-0.309,0.309h-5.244c-0.309,0-0.309,0-0.309,0v0.617v1.542c0,0.309,0,0.309,0.309,0.309H309.701z"/>
		</g>
		<polygon fill="#3DA0DA" points="313.095,231.895 313.095,232.204 313.095,251.945 315.254,251.945 315.563,251.945 
			315.563,231.895 		"/>
		<g>
			<path fill="#3DA0DA" d="M315.254,253.796v-2.468c3.393,0,5.86-4.318,5.86-9.563c0-5.244-2.468-9.563-5.86-9.563v-2.468
				c4.627,0,8.328,5.244,8.328,12.03S319.881,253.796,315.254,253.796"/>
			<path fill="#3DA0DA" d="M289.343,246.084v3.393v1.234c0,1.851,1.233,3.084,3.084,3.084h0.617h1.543h1.851l0.309-0.309v-1.851
				c0-0.309-0.309-0.309-0.309-0.309h-1.851h-0.926h-0.617c-0.925,0-0.925-0.309-0.925-1.234v-0.617v-3.085v-1.851
				c0-1.851-0.617-2.468-1.852-2.776c0.926-0.309,1.852-0.925,1.852-2.776v-1.234v-3.393v-0.925c0-0.925,0.308-1.234,0.925-1.234
				h0.617h0.926h1.851c0,0,0.309,0,0.309-0.309v-1.851c0-0.309-0.309-0.309-0.309-0.309h-1.543h-1.542h-0.926
				c-1.851,0-3.084,1.234-3.084,3.084v0.926v4.318c0,0,0,0.925,0,1.234c0,0.925-1.234,1.542-1.852,1.542h-0.925
				c-0.309,0-0.309,0-0.309,0.309V243c0,0.309,0,0.309,0.309,0.309h0.925c0.926,0,1.852,0.617,1.852,1.851V246.084"/>
			<path fill="#3DA0DA" d="M301.681,229.736h-0.925h-0.926c-0.309,0-0.309,0-0.309,0.309v0.617v1.234v0.309h0.309h1.851h0.617
				v-0.309v-1.851v-0.309H301.681z"/>
			<path fill="#3DA0DA" d="M299.83,251.637v0.925v0.925c0,0.309,0,0.309,0.309,0.309h0.617h1.233h0.309v-0.309v-1.851v-0.309h-0.309
				L299.83,251.637L299.83,251.637L299.83,251.637z"/>
			<path fill="#3DA0DA" d="M315.254,229.736h-0.926h-0.926c-0.309,0-0.309,0-0.309,0.309v0.617v1.234v0.309h0.309h1.852h0.308
				v-0.309v-1.851v-0.309H315.254z"/>
			<path fill="#3DA0DA" d="M313.095,251.637v0.925v0.925c0,0.309,0,0.309,0.308,0.309h0.617h1.234h0.309v-0.309v-1.851v-0.309
				h-0.309L313.095,251.637L313.095,251.637L313.095,251.637z"/>
			<path fill="#3DA0DA" d="M328.826,246.084v3.393v1.234c0,1.851,1.233,3.084,3.085,3.084h0.616h1.543h1.851l0.309-0.309v-1.851
				c0-0.309-0.309-0.309-0.309-0.309h-1.851h-0.926h-0.617c-0.925,0-0.925-0.309-0.925-1.234v-0.617v-3.085v-1.851
				c0-0.617-0.309-1.234-0.309-1.542h-4.318c1.233,0.309,1.542,0.617,1.851,1.851C328.826,245.468,328.826,246.084,328.826,246.084"
				/>
			<path fill="#3DA0DA" d="M328.518,239.298c-0.309,0.925-0.926,1.234-1.851,1.542h4.01c0.309-0.617,0.617-0.925,0.617-1.851v-1.234
				v-3.393v-0.925c0-0.925,0.309-1.234,0.926-1.234h0.616h0.926h1.851c0,0,0.309,0,0.309-0.309v-1.851
				c0-0.309-0.309-0.309-0.309-0.309h-1.542h-1.543h-0.925c-1.851,0-3.085,1.234-3.085,3.084v0.926v4.318
				C328.826,238.064,328.826,238.682,328.518,239.298"/>
			<path fill="#3DA0DA" d="M329.135,242.075c0.617,0.308,1.233,0.617,1.851,1.234h4.627c0.309,0,0.309,0,0.309-0.309v-1.851
				c0-0.309-0.309-0.309-0.309-0.309h-4.627C330.368,241.458,329.752,241.766,329.135,242.075"/>
			<path fill="#3DA0DA" d="M325.741,240.841L325.741,240.841L325.433,243c0,0.309,0,0.309,0.309,0.309h0.926h4.318
				c-0.309-0.617-0.926-0.926-1.542-1.234c0.616-0.309,0.925-0.617,1.233-1.234h-3.701H325.741z"/>
		</g>
	</g>
</g>
<g>
	<g>
		<defs>
			<polygon id="SVGID_1_" points="478.125,481.445 311.552,577.688 144.98,481.445 144.98,288.653 311.552,192.411 478.125,288.653 
							"/>
		</defs>
		<clipPath id="SVGID_2_">
			<use xlink:href="#SVGID_1_"  overflow="visible"/>
		</clipPath>
		
			<path clip-path="url(#SVGID_2_)" fill="none" stroke="#3DA0DA" stroke-width="2" stroke-linecap="square" stroke-linejoin="round" stroke-miterlimit="10" d="
			M302.298,511.676c-11.104,0-12.646,12.646-26.836,12.646c-15.732,0-12.339-12.646-26.837-12.646
			c-13.881,0-14.807,12.646-26.837,12.646c-14.189,0-14.189-12.646-26.837-12.646c-15.423,0-14.807,12.646-26.837,12.646
			c-12.955,0-12.338-12.646-26.836-12.646"/>
	</g>
	<g>
		<defs>
			<polygon id="SVGID_3_" points="478.125,481.445 311.552,577.688 144.98,481.445 144.98,288.653 311.552,192.411 478.125,288.653 
							"/>
		</defs>
		<clipPath id="SVGID_4_">
			<use xlink:href="#SVGID_3_"  overflow="visible"/>
		</clipPath>
		
			<path clip-path="url(#SVGID_4_)" fill="none" stroke="#3DA0DA" stroke-width="2" stroke-linecap="square" stroke-linejoin="round" stroke-miterlimit="10" d="
			M487.379,511.676c-11.105,0-12.647,12.646-26.837,12.646c-15.732,0-12.339-12.646-26.837-12.646
			c-13.881,0-14.807,12.646-26.837,12.646c-14.189,0-14.189-12.646-26.836-12.646c-15.424,0-14.807,12.646-26.837,12.646
			c-12.956,0-12.339-12.646-26.837-12.646"/>
	</g>
	<g>
		<defs>
			<polygon id="SVGID_5_" points="478.125,481.445 311.552,577.688 144.98,481.445 144.98,288.653 311.552,192.411 478.125,288.653 
							"/>
		</defs>
		<clipPath id="SVGID_6_">
			<use xlink:href="#SVGID_5_"  overflow="visible"/>
		</clipPath>
		
			<path clip-path="url(#SVGID_6_)" fill="none" stroke="#3DA0DA" stroke-width="2" stroke-linecap="square" stroke-linejoin="round" stroke-miterlimit="10" d="
			M302.298,531.417c-11.104,0-12.646,12.647-26.836,12.647c-15.732,0-12.339-12.647-26.837-12.647
			c-13.881,0-14.807,12.647-26.837,12.647c-14.189,0-14.189-12.647-26.837-12.647c-15.423,0-14.807,12.647-26.837,12.647
			c-12.955,0-12.338-12.647-26.836-12.647"/>
	</g>
	<g>
		<defs>
			<polygon id="SVGID_7_" points="478.125,481.445 311.552,577.688 144.98,481.445 144.98,288.653 311.552,192.411 478.125,288.653 
							"/>
		</defs>
		<clipPath id="SVGID_8_">
			<use xlink:href="#SVGID_7_"  overflow="visible"/>
		</clipPath>
		
			<path clip-path="url(#SVGID_8_)" fill="none" stroke="#3DA0DA" stroke-width="2" stroke-linecap="square" stroke-linejoin="round" stroke-miterlimit="10" d="
			M487.379,531.417c-11.105,0-12.647,12.647-26.837,12.647c-15.732,0-12.339-12.647-26.837-12.647
			c-13.881,0-14.807,12.647-26.837,12.647c-14.189,0-14.189-12.647-26.836-12.647c-15.424,0-14.807,12.647-26.837,12.647
			c-12.956,0-12.339-12.647-26.837-12.647"/>
	</g>
	<g>
		<defs>
			<polygon id="SVGID_9_" points="478.125,481.445 311.552,577.688 144.98,481.445 144.98,288.653 311.552,192.411 478.125,288.653 
							"/>
		</defs>
		<clipPath id="SVGID_10_">
			<use xlink:href="#SVGID_9_"  overflow="visible"/>
		</clipPath>
		
			<path clip-path="url(#SVGID_10_)" fill="none" stroke="#3DA0DA" stroke-width="2" stroke-linecap="square" stroke-linejoin="round" stroke-miterlimit="10" d="
			M302.298,551.159c-11.104,0-12.646,12.647-26.836,12.647c-15.732,0-12.339-12.647-26.837-12.647
			c-13.881,0-14.807,12.647-26.837,12.647c-14.189,0-14.189-12.647-26.837-12.647c-15.423,0-14.807,12.647-26.837,12.647
			c-12.955,0-12.338-12.647-26.836-12.647"/>
	</g>
	<g>
		<defs>
			<polygon id="SVGID_11_" points="478.125,481.445 311.552,577.688 144.98,481.445 144.98,288.653 311.552,192.411 
				478.125,288.653 			"/>
		</defs>
		<clipPath id="SVGID_12_">
			<use xlink:href="#SVGID_11_"  overflow="visible"/>
		</clipPath>
		
			<path clip-path="url(#SVGID_12_)" fill="none" stroke="#3DA0DA" stroke-width="2" stroke-linecap="square" stroke-linejoin="round" stroke-miterlimit="10" d="
			M487.379,551.159c-11.105,0-12.647,12.647-26.837,12.647c-15.732,0-12.339-12.647-26.837-12.647
			c-13.881,0-14.807,12.647-26.837,12.647c-14.189,0-14.189-12.647-26.836-12.647c-15.424,0-14.807,12.647-26.837,12.647
			c-12.956,0-12.339-12.647-26.837-12.647"/>
	</g>
	<g>
		<defs>
			<polygon id="SVGID_13_" points="478.125,481.445 311.552,577.688 144.98,481.445 144.98,288.653 311.552,192.411 
				478.125,288.653 			"/>
		</defs>
		<clipPath id="SVGID_14_">
			<use xlink:href="#SVGID_13_"  overflow="visible"/>
		</clipPath>
		
			<path clip-path="url(#SVGID_14_)" fill="#FFFFFF" stroke="#3DA0DA" stroke-width="2" stroke-linecap="round" stroke-linejoin="round" stroke-miterlimit="10" d="
			M348.569,392.298c0-3.393-13.573-6.478-31.464-7.095v-4.01c16.349-0.617,28.996-3.084,28.996-6.478s-12.647-5.861-29.305-6.478
			v-3.702c13.881-0.308,24.369-2.776,24.369-5.552s-10.797-4.936-24.678-5.552l-3.085-70.331h-4.01l-2.468,70.639
			c-13.881,0.309-24.368,2.776-24.368,5.553c0,2.776,10.487,4.936,24.06,5.552v3.702c-16.657,0.617-29.304,3.084-29.304,6.478
			c0,3.393,12.339,5.861,28.688,6.478v4.01c-17.892,0.309-31.464,3.393-31.464,6.786c0,0.617,0.309,0.925,0.926,1.542l28.687,44.419
			l-6.478,161.021h28.07l-6.169-161.637l28.379-43.803C348.26,393.532,348.569,392.916,348.569,392.298L348.569,392.298z"/>
	</g>
	<g>
		<polygon id="XMLID_2_" fill="none" stroke="#3DA0DA" stroke-miterlimit="10" points="478.125,481.445 311.552,577.688 
			144.98,481.445 144.98,288.653 311.552,192.411 478.125,288.653 		"/>
	</g>
</g>
<g>
	<polyline fill="#FFFFFF" stroke="#3DA0DA" stroke-miterlimit="10" points="212.226,453.066 225.798,437.644 177.061,437.644 
		191.559,456.46 177.677,474.659 213.459,474.659 	"/>
	<line fill="none" stroke="#3DA0DA" stroke-miterlimit="10" x1="227.341" y1="436.101" x2="227.341" y2="451.524"/>
</g>
<g>
	<polyline fill="#FFFFFF" stroke="#3DA0DA" stroke-miterlimit="10" points="407.794,453.066 394.53,437.644 442.959,437.644 
		428.461,456.46 442.342,474.659 406.868,474.659 	"/>
	<line fill="none" stroke="#3DA0DA" stroke-miterlimit="10" x1="392.988" y1="436.101" x2="392.988" y2="451.524"/>
</g>
<g>
	<rect x="212.843" y="452.449" fill="#FFFFFF" stroke="#3DA0DA" stroke-miterlimit="10" width="194.334" height="46.271"/>
</g>
<rect x="214.385" y="460.778" fill="none" width="192.483" height="33.932"/>
<g enable-background="new    ">
	<path fill="#3EA0D9" d="M224.586,465.288h9.81c2.344,0,4.416,0.447,6.215,1.342s3.198,2.154,4.195,3.778
		c0.997,1.625,1.496,3.517,1.496,5.677c0,2.159-0.499,4.051-1.496,5.676c-0.998,1.624-2.396,2.884-4.195,3.778
		s-3.871,1.342-6.215,1.342h-9.81V465.288z M234.148,482.778c2.16,0,3.882-0.602,5.167-1.805s1.928-2.833,1.928-4.889
		c0-2.057-0.643-3.687-1.928-4.89s-3.007-1.805-5.167-1.805h-4.565v13.388H234.148z"/>
	<path fill="#3EA0D9" d="M266.445,470.285v16.596h-4.565v-1.975c-0.638,0.721-1.398,1.271-2.283,1.65
		c-0.884,0.381-1.84,0.571-2.869,0.571c-2.18,0-3.907-0.627-5.182-1.882c-1.275-1.254-1.913-3.115-1.913-5.583v-9.378h4.812v8.668
		c0,2.674,1.121,4.01,3.362,4.01c1.151,0,2.077-0.375,2.776-1.125c0.699-0.751,1.049-1.867,1.049-3.348v-8.205H266.445z
		 M253.365,467.401c-0.412-0.401-0.617-0.91-0.617-1.527s0.205-1.126,0.617-1.526c0.411-0.401,0.925-0.602,1.542-0.602
		c0.617,0,1.126,0.2,1.527,0.602c0.401,0.4,0.602,0.909,0.602,1.526s-0.201,1.126-0.602,1.527c-0.401,0.4-0.91,0.602-1.527,0.602
		C254.291,468.003,253.777,467.802,253.365,467.401z M259.612,467.401c-0.401-0.401-0.602-0.91-0.602-1.527s0.201-1.126,0.602-1.526
		c0.401-0.401,0.91-0.602,1.527-0.602s1.131,0.2,1.542,0.602c0.411,0.4,0.617,0.909,0.617,1.526s-0.206,1.126-0.617,1.527
		c-0.412,0.4-0.926,0.602-1.542,0.602S260.013,467.802,259.612,467.401z"/>
	<path fill="#3EA0D9" d="M272.46,486.619c-1.316-0.34-2.365-0.767-3.146-1.28l1.604-3.455c0.74,0.474,1.635,0.858,2.684,1.156
		c1.049,0.299,2.077,0.447,3.084,0.447c2.036,0,3.054-0.503,3.054-1.511c0-0.474-0.277-0.813-0.833-1.019
		c-0.555-0.205-1.409-0.38-2.561-0.524c-1.357-0.205-2.478-0.441-3.362-0.709s-1.65-0.74-2.298-1.419
		c-0.648-0.679-0.972-1.646-0.972-2.899c0-1.049,0.303-1.979,0.91-2.792s1.491-1.444,2.653-1.897
		c1.162-0.452,2.535-0.679,4.118-0.679c1.172,0,2.339,0.129,3.501,0.386c1.162,0.258,2.124,0.612,2.884,1.064l-1.604,3.424
		c-1.46-0.822-3.054-1.233-4.781-1.233c-1.028,0-1.8,0.144-2.313,0.432c-0.514,0.288-0.771,0.658-0.771,1.11
		c0,0.515,0.277,0.874,0.833,1.08c0.556,0.205,1.439,0.4,2.653,0.586c1.357,0.227,2.468,0.468,3.332,0.725
		c0.864,0.258,1.614,0.725,2.252,1.403c0.637,0.679,0.956,1.625,0.956,2.838c0,1.029-0.308,1.943-0.925,2.746
		c-0.617,0.802-1.517,1.424-2.699,1.866c-1.183,0.441-2.586,0.663-4.21,0.663C275.123,487.128,273.776,486.958,272.46,486.619z"/>
	<path fill="#3EA0D9" d="M288.839,486.619c-1.316-0.34-2.365-0.767-3.146-1.28l1.604-3.455c0.74,0.474,1.635,0.858,2.684,1.156
		c1.049,0.299,2.077,0.447,3.084,0.447c2.037,0,3.054-0.503,3.054-1.511c0-0.474-0.277-0.813-0.834-1.019
		c-0.555-0.205-1.408-0.38-2.56-0.524c-1.357-0.205-2.478-0.441-3.362-0.709s-1.65-0.74-2.298-1.419
		c-0.648-0.679-0.972-1.646-0.972-2.899c0-1.049,0.303-1.979,0.91-2.792s1.491-1.444,2.653-1.897
		c1.162-0.452,2.535-0.679,4.118-0.679c1.173,0,2.339,0.129,3.501,0.386c1.162,0.258,2.123,0.612,2.885,1.064l-1.604,3.424
		c-1.461-0.822-3.055-1.233-4.782-1.233c-1.028,0-1.8,0.144-2.313,0.432c-0.514,0.288-0.771,0.658-0.771,1.11
		c0,0.515,0.277,0.874,0.833,1.08c0.556,0.205,1.439,0.4,2.653,0.586c1.357,0.227,2.467,0.468,3.332,0.725
		c0.863,0.258,1.613,0.725,2.25,1.403c0.639,0.679,0.957,1.625,0.957,2.838c0,1.029-0.309,1.943-0.926,2.746
		c-0.617,0.802-1.516,1.424-2.699,1.866c-1.182,0.441-2.586,0.663-4.21,0.663C291.502,487.128,290.155,486.958,288.839,486.619z"/>
	<path fill="#3EA0D9" d="M319.84,479.94h-12.555c0.226,1.028,0.761,1.841,1.604,2.437c0.844,0.597,1.893,0.895,3.146,0.895
		c0.864,0,1.63-0.128,2.299-0.386c0.668-0.257,1.29-0.663,1.866-1.218l2.56,2.776c-1.563,1.789-3.846,2.684-6.848,2.684
		c-1.871,0-3.527-0.365-4.966-1.096c-1.44-0.729-2.551-1.742-3.332-3.038s-1.172-2.766-1.172-4.411c0-1.624,0.386-3.09,1.156-4.396
		c0.771-1.306,1.83-2.323,3.178-3.054c1.347-0.729,2.854-1.096,4.519-1.096c1.625,0,3.095,0.351,4.411,1.049
		c1.316,0.7,2.35,1.702,3.101,3.008c0.75,1.307,1.126,2.822,1.126,4.55C319.933,478.706,319.902,479.139,319.84,479.94z
		 M308.581,474.604c-0.74,0.617-1.193,1.461-1.357,2.529h8.174c-0.164-1.048-0.616-1.886-1.356-2.514
		c-0.741-0.627-1.646-0.94-2.715-0.94C310.236,473.679,309.322,473.987,308.581,474.604z"/>
	<path fill="#3EA0D9" d="M323.14,463.992h4.813v22.889h-4.813V463.992z"/>
	<path fill="#3EA0D9" d="M349.329,463.992v22.889h-4.596v-1.912c-1.193,1.439-2.921,2.159-5.183,2.159
		c-1.563,0-2.977-0.35-4.241-1.049s-2.258-1.697-2.977-2.992c-0.721-1.296-1.08-2.797-1.08-4.504s0.359-3.208,1.08-4.504
		c0.719-1.295,1.712-2.292,2.977-2.992c1.265-0.698,2.678-1.049,4.241-1.049c2.118,0,3.773,0.669,4.966,2.006v-8.052H349.329z
		 M343.406,481.93c0.803-0.833,1.203-1.948,1.203-3.347s-0.4-2.514-1.203-3.347c-0.802-0.833-1.81-1.249-3.022-1.249
		c-1.234,0-2.252,0.416-3.054,1.249c-0.803,0.833-1.203,1.948-1.203,3.347s0.4,2.514,1.203,3.347c0.802,0.833,1.819,1.25,3.054,1.25
		C341.597,483.18,342.605,482.763,343.406,481.93z"/>
	<path fill="#3EA0D9" d="M356.963,486.032c-1.389-0.729-2.474-1.742-3.255-3.038s-1.172-2.766-1.172-4.411
		c0-1.645,0.391-3.115,1.172-4.411s1.866-2.308,3.255-3.038c1.388-0.729,2.955-1.096,4.704-1.096c1.747,0,3.311,0.366,4.688,1.096
		c1.377,0.73,2.457,1.742,3.238,3.038s1.173,2.767,1.173,4.411c0,1.646-0.392,3.115-1.173,4.411s-1.861,2.309-3.238,3.038
		c-1.378,0.73-2.941,1.096-4.688,1.096C359.918,487.128,358.351,486.763,356.963,486.032z M364.705,481.93
		c0.791-0.833,1.188-1.948,1.188-3.347s-0.396-2.514-1.188-3.347c-0.792-0.833-1.805-1.249-3.038-1.249
		c-1.234,0-2.252,0.416-3.055,1.249c-0.802,0.833-1.202,1.948-1.202,3.347s0.4,2.514,1.202,3.347c0.803,0.833,1.82,1.25,3.055,1.25
		C362.901,483.18,363.913,482.763,364.705,481.93z"/>
	<path fill="#3EA0D9" d="M380.901,470.655c0.977-0.411,2.102-0.617,3.377-0.617v4.442c-0.534-0.041-0.895-0.062-1.079-0.062
		c-1.378,0-2.458,0.386-3.239,1.156c-0.781,0.771-1.172,1.929-1.172,3.471v7.835h-4.813v-16.596h4.597v2.19
		C379.147,471.674,379.923,471.067,380.901,470.655z"/>
	<path fill="#3EA0D9" d="M392.545,470.655h4.257v3.702h-4.134v12.523h-4.813v-12.523h-2.56v-3.702h2.56v-0.74
		c0-1.892,0.561-3.393,1.682-4.504c1.12-1.11,2.699-1.665,4.735-1.665c0.719,0,1.403,0.077,2.051,0.231s1.188,0.375,1.619,0.663
		l-1.265,3.485c-0.555-0.391-1.203-0.586-1.943-0.586c-1.46,0-2.189,0.802-2.189,2.406V470.655z"/>
</g>
<g>
	<path fill="#3EA0D9" d="M224.565,425.613c-4.318-1.543-7.712-3.085-10.488-5.553s-5.244-4.936-6.786-7.712
		s-2.776-6.169-3.701-9.563c-0.926-3.394-1.234-7.095-1.234-10.796v-14.806c0-2.468-0.309-4.936-0.617-7.095
		c-0.308-2.16-1.233-4.01-2.159-5.553c-0.925-1.542-2.159-2.776-4.01-3.393c-1.851-0.617-3.394-1.234-5.553-1.234v-10.488
		c4.319,0,7.403-1.542,9.563-4.627c2.159-3.085,2.776-7.403,2.776-12.647v-15.115c0-3.702,0.309-7.403,1.234-10.796
		c0.925-3.393,1.851-6.478,3.701-9.563s4.01-5.552,6.786-7.711c2.776-2.16,6.479-4.01,10.488-5.553l2.468,8.329
		c-2.468,0.925-4.318,2.159-5.861,3.702c-1.542,1.542-2.776,3.702-3.701,5.861c-0.926,2.159-1.234,4.936-1.543,7.712
		c-0.308,2.776-0.616,5.552-0.616,8.329v15.115c0,4.936-0.926,9.254-2.468,13.264c-1.543,4.01-4.318,7.095-8.021,9.254
		c3.702,2.159,6.478,5.244,8.021,9.254c1.542,4.01,2.468,8.329,2.468,13.264v14.806c0,3.085,0.309,5.861,0.616,8.329
		c0.309,2.776,0.926,4.936,1.852,7.403c0.925,2.468,2.159,4.011,3.701,5.86c1.542,1.852,3.394,2.777,5.861,3.702L224.565,425.613z"
		/>
</g>
<g>
	<path fill="#3EA0D9" d="M392.988,417.284c2.468-0.925,4.318-2.159,5.861-3.702c1.542-1.541,2.776-3.701,3.701-5.86
		c0.926-2.159,1.542-4.627,1.851-7.403c0.309-2.775,0.617-5.552,0.617-8.329v-14.806c0-4.936,0.926-9.563,2.776-13.264
		s4.627-6.787,8.637-8.946c-4.01-2.159-6.786-4.936-8.637-8.945c-1.851-4.01-2.776-8.329-2.776-13.264v-15.115
		c0-3.085-0.309-5.861-0.617-8.329c-0.308-2.467-0.925-5.244-1.851-7.403c-0.925-2.16-2.159-4.01-3.701-5.861
		c-1.543-1.851-3.394-2.776-5.861-3.702l2.468-8.329c4.318,1.542,7.712,3.084,10.488,5.552c2.775,2.468,4.936,4.936,6.786,7.711
		c1.851,2.776,2.776,6.169,3.701,9.563c0.926,3.394,1.234,7.095,1.234,10.797v15.115c0,2.468,0.309,4.936,0.616,7.095
		c0.309,2.159,1.234,4.01,2.16,5.552c0.925,1.542,2.159,2.776,4.01,3.393c1.851,0.617,3.393,1.234,5.553,1.234v10.488
		c-2.16,0-4.011,0.308-5.553,1.234c-1.542,0.925-2.776,1.851-4.01,3.393c-1.234,1.542-1.852,3.393-2.16,5.552
		c-0.308,2.159-0.616,4.627-0.616,7.095v14.807c0,3.702-0.309,7.403-1.234,10.796c-0.925,3.394-1.851,6.786-3.701,9.563
		s-4.011,5.552-6.786,7.712c-2.776,2.159-6.479,4.01-10.488,5.552L392.988,417.284z"/>
</g>
</svg>
